{"title":"Robby (1968) DVD RIP","uid":9321633,"size":726860529,"categoryP":"video","categoryS":"movies","magnet":"?xt=urn:btih:0aa731957027ae5317cc2c5daca0041342fadcb2&amp;dn=+Robby+%281968%29+DVD+RIP&amp;tr=udp%3A%2F%2Ftracker.openbittorrent.com%3A80&amp;tr=udp%3A%2F%2Fopen.demonii.com%3A1337&amp;tr=udp%3A%2F%2Ftracker.coppersurfer.tk%3A6969&amp;tr=udp%3A%2F%2Fexodus.desync.com%3A6969","seeders":0,"leechers":1,"uploader":"sonicx33","files":-1,"time":1386562991,"description":" &lt;a href=&quot;http://www.imdb.com/title/tt0063513/&quot; rel=&quot;nofollow&quot; target=&quot;_NEW&quot;&gt;http://www.imdb.com/title/tt0063513/&lt;/a&gt;\n\n &lt;a href=&quot;\nhttp://postimg.org/image/5o2jz2p8v/&quot; rel=&quot;nofollow&quot; target=&quot;_NEW&quot;&gt;\nhttp://postimg.org/image/5o2jz2p8v/&lt;/a&gt;\n\n &lt;a href=&quot;\nhttp://postimg.org/image/96ejvgq4v/&quot; rel=&quot;nofollow&quot; target=&quot;_NEW&quot;&gt;\nhttp://postimg.org/image/96ejvgq4v/&lt;/a&gt;\n\n\n\nStoryline\n\nShipwrecked on a tropical island, a young boy befriends an abandoned native youth, forcing him to reevaluate societal prejudice about race, religion and nudity. \n\n\nFormat                                   : MPEG-4\nFormat profile                           : Base Media / Version 2\nCodec ID                                 : mp42\nFile size                                : 682 MiB\nDuration                                 : 57mn 53s\nOverall bit rate mode                    : Variable\nOverall bit rate                         : 1 646 Kbps\nEncoded date                             : UTC 2013-12-08 02:06:16\nTagged date                              : UTC 2013-12-08 02:30:32\nWriting application                      : HandBrake 0.9.9 2013052900\n\nVideo\nID                                       : 1\nFormat                                   : AVC\nFormat/Info                              : Advanced Video Codec\nFormat profile                           : &lt;a class=&quot;__cf_email__&quot; href=&quot;/cdn-cgi/l/email-protection&quot; data-cfemail=&quot;4e062729260e027b607c&quot;&gt;[email&amp;#160;protected]&lt;/a&gt;&lt;script data-cfhash='f9e31' type=&quot;text/javascript&quot;&gt;\n/* &lt;![CDATA[ */!function(){try{var t=&quot;currentScript&quot;in document?document.currentScript:function(){for(var t=document.getElementsByTagName(&quot;script&quot;),e=t.length;e--;)if(t[e].getAttribute(&quot;data-cfhash&quot;))return t[e]}();if(t&amp;&amp;t.previousSibling){var e,r,n,i,c=t.previousSibling,a=c.getAttribute(&quot;data-cfemail&quot;);if(a){for(e=&quot;&quot;,r=parseInt(a.substr(0,2),16),n=2;a.length-n;n+=2)i=parseInt(a.substr(n,2),16)^r,e+=String.fromCharCode(i);e=document.createTextNode(e),c.parentNode.replaceChild(e,c)}t.parentNode.removeChild(t);}}catch(u){}}()/* ]]&gt; */&lt;/script&gt;\nFormat settings, CABAC                   : Yes\nFormat settings, ReFrames                : 4 frames\nCodec ID                                 : avc1\nCodec ID/Info                            : Advanced Video Coding\nDuration                                 : 57mn 53s\nBit rate                                 : 1 546 Kbps\nWidth                                    : 720 pixels\nHeight                                   : 480 pixels\nDisplay aspect ratio                     : 4:3\nOriginal display aspect ratio            : 4:3\nFrame rate mode                          : Constant\nFrame rate                               : 29.970 fps\nStandard                                 : NTSC\nColor space                              : YUV\nChroma subsampling                       : 4:2:0\nBit depth                                : 8 bits\nScan type                                : Progressive\nBits/(Pixel*Frame)                       : 0.149\nStream size                              : 640 MiB (94%)\nWriting library                          : x264 core 130 r2273 b3065e6\nEncoding settings                        : cabac=1 / ref=2 / deblock=1:0:0 / \nEncoded date                             : UTC 2013-12-08 02:06:16\nTagged date                              : UTC 2013-12-08 02:30:32\nColor primaries                          : BT.601 NTSC\nTransfer characteristics                 : BT.709\nMatrix coefficients                      : BT.601\n\nAudio\nID                                       : 2\nFormat                                   : AAC\nFormat/Info                              : Advanced Audio Codec\nFormat profile                           : LC\nCodec ID                                 : 40\nDuration                                 : 57mn 53s\nBit rate mode                            : Variable\nBit rate                                 : 96.0 Kbps\nMaximum bit rate                         : 112 Kbps\nChannel(s)                               : 2 channels\nChannel positions                        : Front: L R\nSampling rate                            : 48.0 KHz\nCompression mode                         : Lossy\nStream size                              : 39.7 MiB (6%)\nLanguage                                 : English\nEncoded date                             : UTC 2013-12-08 02:06:16\nTagged date                              : UTC 2013-12-08 02:30:31\n\n","torrent":{"xt":"urn:btih:0aa731957027ae5317cc2c5daca0041342fadcb2","amp;dn":"+Robby+%281968%29+DVD+RIP","amp;tr":["udp%3A%2F%2Ftracker.openbittorrent.com%3A80","udp%3A%2F%2Fopen.demonii.com%3A1337","udp%3A%2F%2Ftracker.coppersurfer.tk%3A6969","udp%3A%2F%2Fexodus.desync.com%3A6969"],"infoHash":"0aa731957027ae5317cc2c5daca0041342fadcb2","infoHashBuffer":{"type":"Buffer","data":[10,167,49,149,112,39,174,83,23,204,44,93,172,160,4,19,66,250,220,178]},"announce":[],"urlList":[]}}